HIERARCHY
ROOT Hips
{
  OFFSET 5.84602e-005 68.8428 3.50346
  CHANNELS 6 Xposition Yposition Zposition Zrotation Xrotation Yrotation
  JOINT Spine
  {
    OFFSET 0 8.597 -4.6522
    CHANNELS 3 Zrotation Xrotation Yrotation
    JOINT Spine1
    {
      OFFSET 0 7.8454 0.4098
      CHANNELS 3 Zrotation Xrotation Yrotation
      JOINT Spine2
      {
        OFFSET 0 9.7078 -2.1609
        CHANNELS 3 Zrotation Xrotation Yrotation
        JOINT Neck
        {
          OFFSET 0 21.8761 -0.4549
          CHANNELS 3 Zrotation Xrotation Yrotation
          JOINT Head
          {
            OFFSET 0 12.3537 3.3602
            CHANNELS 3 Zrotation Xrotation Yrotation
            End Site
            {
              OFFSET 0.0001 18.9506 0.5657
            }
          }
        }
        JOINT LeftShoulder
        {
          OFFSET 2.2086 21.1115 7.2329
          CHANNELS 3 Zrotation Xrotation Yrotation
          JOINT LeftArm
          {
            OFFSET 13.1193 3.0282 -4.8998
            CHANNELS 3 Zrotation Xrotation Yrotation
            JOINT LeftForeArm
            {
              OFFSET 27.4081 -0.0973053 -0.2375
              CHANNELS 3 Zrotation Xrotation Yrotation
              JOINT LeftHand
              {
                OFFSET 22.8641 0.0662994 -0.1369
                CHANNELS 3 Zrotation Xrotation Yrotation
                JOINT LeftHandIndex1
                {
                  OFFSET 8.8614 0.775009 2.4612
                  CHANNELS 3 Zrotation Xrotation Yrotation
                  JOINT LeftHandIndex2
                  {
                    OFFSET 3.3146 -0.808304 0.5841
                    CHANNELS 3 Zrotation Xrotation Yrotation
                    JOINT LeftHandIndex3
                    {
                      OFFSET 2.2628 -0.552002 0.3989
                      CHANNELS 3 Zrotation Xrotation Yrotation
                      End Site
                      {
                        OFFSET 1.6102 -0.4807 0.2612
                      }
                    }
                  }
                }
                JOINT LeftHandMiddle1
                {
                  OFFSET 8.9937 0.895004 0.2143
                  CHANNELS 3 Zrotation Xrotation Yrotation
                  JOINT LeftHandMiddle2
                  {
                    OFFSET 4.0984 0.0113983 -0.0242
                    CHANNELS 3 Zrotation Xrotation Yrotation
                    JOINT LeftHandMiddle3
                    {
                      OFFSET 2.2716 0.00689697 -0.0138001
                      CHANNELS 3 Zrotation Xrotation Yrotation
                      End Site
                      {
                        OFFSET 2.0404 -0.1441 0.0027
                      }
                    }
                  }
                }
                JOINT LeftHandRing1
                {
                  OFFSET 8.5234 0.597198 -2.0164
                  CHANNELS 3 Zrotation Xrotation Yrotation
                  JOINT LeftHandRing2
                  {
                    OFFSET 3.7188 -0.188293 -0.2328
                    CHANNELS 3 Zrotation Xrotation Yrotation
                    JOINT LeftHandRing3
                    {
                      OFFSET 2.1191 -0.106598 -0.1332
                      CHANNELS 3 Zrotation Xrotation Yrotation
                      End Site
                      {
                        OFFSET 1.8737 -0.2304 -0.0886
                      }
                    }
                  }
                }
                JOINT LeftHandPinky1
                {
                  OFFSET 7.9094 -0.601089 -3.4825
                  CHANNELS 3 Zrotation Xrotation Yrotation
                  JOINT LeftHandPinky2
                  {
                    OFFSET 2.2874 -0.477005 -0.6314
                    CHANNELS 3 Zrotation Xrotation Yrotation
                    JOINT LeftHandPinky3
                    {
                      OFFSET 1.6774 -0.349396 -0.4633
                      CHANNELS 3 Zrotation Xrotation Yrotation
                      End Site
                      {
                        OFFSET 1.4888 -0.4091 -0.3416
                      }
                    }
                  }
                }
                JOINT LeftHandThumb1
                {
                  OFFSET 1.833 -1.3875 1.3896
                  CHANNELS 3 Zrotation Xrotation Yrotation
                  JOINT LeftHandThumb2
                  {
                    OFFSET 3.4129 -1.121 2.5732
                    CHANNELS 3 Zrotation Xrotation Yrotation
                    JOINT LeftHandThumb3
                    {
                      OFFSET 2.2474 -0.804199 1.6192
                      CHANNELS 3 Zrotation Xrotation Yrotation
                      End Site
                      {
                        OFFSET 1.6527 -0.5689 1.1317
                      }
                    }
                  }
                }
              }
            }
          }
        }
        JOINT RightShoulder
        {
          OFFSET -2.2086 21.1115 7.2329
          CHANNELS 3 Zrotation Xrotation Yrotation
          JOINT RightArm
          {
            OFFSET -13.1216 3.0287 -4.9007
            CHANNELS 3 Zrotation Xrotation Yrotation
            JOINT RightForeArm
            {
              OFFSET -27.4081 -0.0973053 -0.2375
              CHANNELS 3 Zrotation Xrotation Yrotation
              JOINT RightHand
              {
                OFFSET -22.8641 0.0664063 -0.1369
                CHANNELS 3 Zrotation Xrotation Yrotation
                JOINT RightHandIndex1
                {
                  OFFSET -8.8614 0.774994 2.4612
                  CHANNELS 3 Zrotation Xrotation Yrotation
                  JOINT RightHandIndex2
                  {
                    OFFSET -3.3146 -0.808304 0.5841
                    CHANNELS 3 Zrotation Xrotation Yrotation
                    JOINT RightHandIndex3
                    {
                      OFFSET -2.2628 -0.552002 0.3989
                      CHANNELS 3 Zrotation Xrotation Yrotation
                      End Site
                      {
                        OFFSET -1.6102 -0.4807 0.2612
                      }
                    }
                  }
                }
                JOINT RightHandMiddle1
                {
                  OFFSET -8.9937 0.894989 0.2143
                  CHANNELS 3 Zrotation Xrotation Yrotation
                  JOINT RightHandMiddle2
                  {
                    OFFSET -4.0984 0.0113983 -0.0242
                    CHANNELS 3 Zrotation Xrotation Yrotation
                    JOINT RightHandMiddle3
                    {
                      OFFSET -2.2716 0.00691223 -0.0138001
                      CHANNELS 3 Zrotation Xrotation Yrotation
                      End Site
                      {
                        OFFSET -2.0404 -0.1441 0.0027
                      }
                    }
                  }
                }
                JOINT RightHandRing1
                {
                  OFFSET -8.5234 0.597198 -2.0164
                  CHANNELS 3 Zrotation Xrotation Yrotation
                  JOINT RightHandRing2
                  {
                    OFFSET -3.7188 -0.188309 -0.2328
                    CHANNELS 3 Zrotation Xrotation Yrotation
                    JOINT RightHandRing3
                    {
                      OFFSET -2.1191 -0.106598 -0.1332
                      CHANNELS 3 Zrotation Xrotation Yrotation
                      End Site
                      {
                        OFFSET -1.8737 -0.2304 -0.0886
                      }
                    }
                  }
                }
                JOINT RightHandPinky1
                {
                  OFFSET -7.9094 -0.601105 -3.4825
                  CHANNELS 3 Zrotation Xrotation Yrotation
                  JOINT RightHandPinky2
                  {
                    OFFSET -2.2874 -0.477005 -0.6314
                    CHANNELS 3 Zrotation Xrotation Yrotation
                    JOINT RightHandPinky3
                    {
                      OFFSET -1.6774 -0.349396 -0.4633
                      CHANNELS 3 Zrotation Xrotation Yrotation
                      End Site
                      {
                        OFFSET -1.4888 -0.4091 -0.3416
                      }
                    }
                  }
                }
                JOINT RightHandThumb1
                {
                  OFFSET -1.833 -1.38751 1.3896
                  CHANNELS 3 Zrotation Xrotation Yrotation
                  JOINT RightHandThumb2
                  {
                    OFFSET -3.41299 -1.12099 2.5732
                    CHANNELS 3 Zrotation Xrotation Yrotation
                    JOINT RightHandThumb3
                    {
                      OFFSET -2.24741 -0.804108 1.6192
                      CHANNELS 3 Zrotation Xrotation Yrotation
                      End Site
                      {
                        OFFSET -1.6527 -0.5689 1.1317
                      }
                    }
                  }
                }
              }
            }
          }
        }
      }
    }
  }
  JOINT RightUpLeg
  {
    OFFSET -9.1966 3.8861 -0.7581
    CHANNELS 3 Zrotation Xrotation Yrotation
    JOINT RightLeg
    {
      OFFSET -0.7359 -41.0265 0
      CHANNELS 3 Zrotation Xrotation Yrotation
      JOINT RightFoot
      {
        OFFSET 0 -40.2855 0
        CHANNELS 3 Zrotation Xrotation Yrotation
        JOINT RightToeBase
        {
          OFFSET 0 -5.6122 11.7359
          CHANNELS 3 Zrotation Xrotation Yrotation
          End Site
          {
            OFFSET 0 0 7.8731
          }
        }
      }
    }
  }
  JOINT LeftUpLeg
  {
    OFFSET 9.1965 3.8864 -0.7581
    CHANNELS 3 Zrotation Xrotation Yrotation
    JOINT LeftLeg
    {
      OFFSET 0.7359 -41.0268 0
      CHANNELS 3 Zrotation Xrotation Yrotation
      JOINT LeftFoot
      {
        OFFSET 0 -40.2855 0
        CHANNELS 3 Zrotation Xrotation Yrotation
        JOINT LeftToeBase
        {
          OFFSET 0 -5.6122 11.7359
          CHANNELS 3 Zrotation Xrotation Yrotation
          End Site
          {
            OFFSET 0 0 7.8731
          }
        }
      }
    }
  }
}
MOTION
Frames:	7
Frame Time:	0.0333333
5.84602e-005 68.8428 3.50346 0 0 -0 0 0 -0 0 0 -0 0 0 -0 0 0 -0 0 0 -0 0 0 -0 0 0 -0 0 0 -0 0 0 -0 0 0 -0 0 0 -0 0 0 -0 0 0 -0 -0.0146107 -8.87603e-005 -2.63497e-007 2.99804e-018 -2.42657e-020 -1.42182e-022 0 0 -0 -0.0187562 -0.001176 5.858e-005 5.06224e-018 3.88251e-019 1.21329e-020 0 0 -0 -0.012269 -0.00324817 0.000675346 -1.74678e-018 3.88251e-019 -0 0 0 -0 0 0 -0 0 0 -0 0 0 -0 0 0 -0 0 0 -0 0 0 -0 0 0 -0 0 0 -0 0 0 -0 0 0 -0 0.0149955 -9.10982e-005 2.64101e-007 -9.69331e-018 1.21329e-020 -4.7394e-023 0 0 -0 0.0189956 -0.00119102 -5.96516e-005 -5.41541e-019 0 2.42657e-020 0 0 -0 0.0122698 -0.00324857 -0.000673756 -2.00796e-019 0 -1.94126e-019 0 0 -0 0 0 -0 0 0 -0 3.39842 1.33031 -0.0637918 -5.65207e-008 0.834868 -0.000436188 -3.39935 -2.16518 -0.0642563 -8.89002e-024 -1.18485e-023 -1.48106e-024 -3.39844 1.35642 0.0640283 -3.18788e-007 0.782166 -0.000588827 3.39931 -2.13858 0.0634662 1.1399e-023 0 -0 
8.05309e-005 74.2772 -32.4966 -0 -69.0033 -0 -0.369259 16.9379 -0.0309708 -0.783858 33.8758 0.0629191 -0.783858 33.8758 0.0629185 1.13515e-007 -0.788312 1.61134e-006 -9.3142e-008 -0.715168 1.42055e-007 -8.00266 -0.194473 -0.00133436 4.62043 47.3981 -5.91834 2.61935e-006 1.8715e-005 -8.00265 -7.00032 2.80077e-007 7.96816e-007 1.00827e-006 -3.55468e-006 6.40157e-007 1.70398e-007 -2.24605e-006 6.67423e-007 1.00827e-006 -3.55468e-006 6.40157e-007 1.00827e-006 -3.55468e-006 6.40157e-007 -0.0145808 -8.42368e-005 2.21765e-006 1.00899e-006 -3.55476e-006 6.39704e-007 1.00827e-006 -3.55468e-006 6.40157e-007 -0.0186822 -0.00117425 5.85211e-005 1.0092e-006 -3.55473e-006 6.39565e-007 1.00827e-006 -3.55468e-006 6.40157e-007 -0.0122374 -0.00324751 0.000675593 6.13695e-007 -2.12029e-006 -4.63521e-008 1.00827e-006 -3.55468e-006 6.40157e-007 1.70398e-007 -2.24605e-006 6.67423e-007 1.00827e-006 -3.55468e-006 6.40157e-007 7.99915 -0.194718 -0.00216025 -4.62308 47.398 5.91568 -9.17528e-007 -4.21981e-006 7.99914 6.99683 2.21954e-006 3.06684e-007 -5.48389e-007 -1.24091e-007 -2.32266e-006 4.43568e-007 -1.17821e-007 -7.17763e-007 4.43568e-007 -1.17821e-007 -7.17763e-007 -5.48389e-007 -1.24091e-007 -2.32266e-006 0.0150375 -8.84743e-005 -1.00696e-007 4.43575e-007 -1.17915e-007 -7.17748e-007 -5.48389e-007 -1.24091e-007 -2.32266e-006 0.019001 -0.00119599 -6.21275e-005 4.4357e-007 -1.17941e-007 -7.17748e-007 -5.48389e-007 -1.24091e-007 -2.32266e-006 0.0124082 -0.0032873 -0.000686223 4.43555e-007 -1.17898e-007 -7.17763e-007 -5.48389e-007 -1.24091e-007 -2.32266e-006 4.43568e-007 -1.17821e-007 -7.17763e-007 4.43568e-007 -1.17821e-007 -7.17763e-007 -121.349 -50.3748 -128.608 -103.495 75.086 101.549 -5.06985 30.4012 -0.537504 -3.51733e-006 -1.16988e-006 2.92898e-006 121.351 -50.3805 128.61 103.494 75.0861 -101.554 5.06762 30.4007 0.534462 3.70619e-006 -4.1778e-006 -8.92411e-006 
-0.00245899 74.2764 -32.4959 -0 -69.0033 -0 -0.37039 16.8612 -0.0291966 -0.786385 33.7222 0.0663765 -0.786386 33.7223 0.0663764 -6.04401e-006 -1.57302 1.07279e-006 4.14177e-008 -1.42894 -2.09909e-007 -8.14879 -0.174714 0.111211 4.62044 47.3981 -5.91834 -4.51261e-007 1.65023e-005 -8.00265 -6.93101 0.374907 0.0732372 4.44314e-007 1.26173e-007 -7.13562e-007 -9.41817e-008 2.18215e-007 -3.02931e-006 4.44314e-007 1.26173e-007 -7.13562e-007 4.44314e-007 1.26173e-007 -7.13562e-007 -0.0145266 -8.79344e-005 -3.10538e-006 1.28533e-006 -1.18221e-006 -7.37636e-007 4.44314e-007 1.26173e-007 -7.13562e-007 -0.0187894 -0.00117982 5.37037e-005 4.4432e-007 1.26291e-007 -7.13546e-007 4.44314e-007 1.26173e-007 -7.13562e-007 -0.0121489 -0.00321436 0.000668872 4.44303e-007 1.26249e-007 -7.13561e-007 4.44314e-007 1.26173e-007 -7.13562e-007 -9.41817e-008 2.18215e-007 -3.02931e-006 4.44314e-007 1.26173e-007 -7.13562e-007 8.16067 -0.175183 -0.102529 -4.62308 47.398 5.91568 2.99336e-006 9.80727e-006 7.99914 6.84463 0.375476 -0.091584 -4.43522e-007 1.1739e-007 7.1783e-007 -4.43522e-007 1.1739e-007 7.1783e-007 -4.43522e-007 1.1739e-007 7.1783e-007 -4.43522e-007 1.1739e-007 7.1783e-007 0.0149351 -8.82049e-005 2.61905e-006 -4.43528e-007 1.17483e-007 7.17815e-007 -4.43522e-007 1.1739e-007 7.1783e-007 0.0190001 -0.00119257 -5.84297e-005 -4.43524e-007 1.17509e-007 7.17815e-007 -4.43522e-007 1.1739e-007 7.1783e-007 0.012249 -0.00324717 -0.000675087 -4.43508e-007 1.17466e-007 7.1783e-007 -4.43522e-007 1.1739e-007 7.1783e-007 -4.43522e-007 1.1739e-007 7.1783e-007 -4.43522e-007 1.1739e-007 7.1783e-007 -121.831 -50.6463 -129.135 -105.066 74.9416 103.055 -4.90322 30.1726 -0.996956 -1.59028e-014 -3.18055e-015 4.77083e-015 121.495 -50.5599 128.745 103.453 75.0886 -101.519 4.95265 30.3033 0.775359 2.88019e-006 -9.54872e-007 -1.43115e-006 
-0.00497963 74.2756 -32.4952 -0 -69.0033 -0 -0.371491 16.7844 -0.02742 -0.788841 33.5686 0.069821 -0.788842 33.5685 0.0698206 4.21177e-006 -2.35885 -1.47326e-006 1.1519e-007 -2.14302 -1.75602e-007 -8.29495 -0.155282 0.223804 4.62043 47.3981 -5.91834 -1.44041e-006 1.21767e-005 -8.00265 -6.86216 0.749971 0.146038 9.82781e-007 3.4274e-008 1.60212e-006 1.42707e-006 1.60589e-007 8.88581e-007 -1.61513e-015 0 5.26779e-015 9.82781e-007 3.4274e-008 1.60212e-006 -0.0145212 -8.28054e-005 3.07873e-006 -2.11209e-015 -6.36111e-015 -4.55962e-015 9.82781e-007 3.4274e-008 1.60212e-006 -0.0187723 -0.00117621 6.15363e-005 1.61513e-015 3.18055e-015 2.2736e-015 9.82781e-007 3.4274e-008 1.60212e-006 -0.0123444 -0.00326944 0.000679458 -4.72114e-016 0 -5.03174e-015 9.82781e-007 3.4274e-008 1.60212e-006 1.42707e-006 1.60589e-007 8.88581e-007 -1.61513e-015 0 5.26779e-015 8.32223 -0.155978 -0.202951 -4.62309 47.398 5.91568 1.88237e-006 2.38452e-006 7.99914 6.693 0.751236 -0.182191 -8.69455e-007 -1.23172e-006 4.81038e-007 -5.09679e-007 -2.1991e-006 -2.1616e-007 -4.43472e-007 1.16958e-007 7.17897e-007 -8.69455e-007 -1.23172e-006 4.81038e-007 0.0150141 -9.38114e-005 7.43655e-007 -4.43479e-007 1.17052e-007 7.17882e-007 -8.69455e-007 -1.23172e-006 4.81038e-007 0.0188814 -0.0011853 -5.96411e-005 -4.43474e-007 1.17076e-007 7.17882e-007 -8.69455e-007 -1.23172e-006 4.81038e-007 0.0122328 -0.00324614 -0.000671046 -4.43458e-007 1.17033e-007 7.17897e-007 -8.69455e-007 -1.23172e-006 4.81038e-007 -5.09679e-007 -2.1991e-006 -2.1616e-007 -4.43472e-007 1.16958e-007 7.17897e-007 -122.32 -50.9151 -129.669 -106.607 74.7867 104.53 -4.73919 29.9429 -1.45464 3.18055e-015 -9.54166e-015 -9.54166e-015 121.641 -50.7391 128.882 103.411 75.0911 -101.483 4.83834 30.2056 1.01574 1.12459e-006 -3.09029e-007 -1.76473e-006 
-0.00748782 74.2748 -32.4945 -0 -69.0033 -0 -0.37256 16.7075 -0.0256403 -0.791224 33.4147 0.0732536 -0.791224 33.4147 0.0732533 1.96894e-006 -3.14451 -1.17115e-006 -1.30991e-007 -2.85735 -1.57319e-007 -8.44116 -0.136101 0.336453 4.62043 47.3981 -5.91834 9.91305e-007 -1.48169e-005 -8.00265 -6.79378 1.12512 0.218398 1.42702e-006 1.60891e-007 8.88528e-007 -4.44264e-007 -1.26458e-007 7.13509e-007 8.88528e-007 2.52917e-007 -1.42702e-006 1.42702e-006 1.60891e-007 8.88528e-007 -0.0146231 -9.49191e-005 -3.04238e-006 8.88548e-007 2.53099e-007 -1.42699e-006 1.42702e-006 1.60891e-007 8.88528e-007 -0.0187868 -0.00118531 6.0725e-005 8.8854e-007 2.53152e-007 -1.42699e-006 1.42702e-006 1.60891e-007 8.88528e-007 -0.0122604 -0.00324116 0.000675945 8.88507e-007 2.53069e-007 -1.42702e-006 1.42702e-006 1.60891e-007 8.88528e-007 -4.44264e-007 -1.26458e-007 7.13509e-007 8.88528e-007 2.52917e-007 -1.42702e-006 8.48383 -0.137019 -0.303433 -4.62309 47.398 5.91569 -2.66911e-006 4.33201e-006 7.99915 6.54194 1.12732 -0.271821 4.4342e-007 -1.16525e-007 -7.17965e-007 -5.49089e-007 -1.18921e-007 -2.32277e-006 4.4342e-007 -1.16525e-007 -7.17965e-007 4.4342e-007 -1.16525e-007 -7.17965e-007 0.0150127 -8.97754e-005 -3.31458e-006 4.43427e-007 -1.16619e-007 -7.1795e-007 4.4342e-007 -1.16525e-007 -7.17965e-007 0.0189131 -0.00118822 -6.1603e-005 4.43422e-007 -1.16644e-007 -7.1795e-007 4.4342e-007 -1.16525e-007 -7.17965e-007 0.0121242 -0.00321156 -0.000673372 4.43407e-007 -1.166e-007 -7.17965e-007 4.4342e-007 -1.16525e-007 -7.17965e-007 -5.49089e-007 -1.18921e-007 -2.32277e-006 4.4342e-007 -1.16525e-007 -7.17965e-007 -122.815 -51.1813 -130.209 -108.117 74.6216 105.974 -4.57781 29.7121 -1.91052 1.75373e-006 -2.62051e-006 1.42658e-006 121.787 -50.9181 129.02 103.369 75.0935 -101.448 4.72464 30.1074 1.25564 2.87669e-006 -9.56131e-007 -1.43816e-006 
-0.00997787 74.274 -32.4939 -0 -69.0033 -0 -0.373599 16.6305 -0.0238584 -0.793535 33.2608 0.0766732 -0.793535 33.2607 0.0766727 8.01913e-006 -3.93039 -3.38532e-006 -8.32956e-008 -3.57188 -5.02422e-008 -8.58741 -0.117212 0.449152 4.62044 47.3981 -5.91835 3.80335e-006 8.51775e-006 -8.00265 -6.72585 1.50042 0.290342 4.44237e-007 1.26603e-007 -7.13483e-007 2.98177e-016 -3.18055e-015 3.19298e-015 -5.38492e-007 9.1997e-008 -2.31544e-006 4.44237e-007 1.26603e-007 -7.13483e-007 -0.0146523 -9.73422e-005 -3.96476e-006 -5.38441e-007 9.22934e-008 -2.31543e-006 4.44237e-007 1.26603e-007 -7.13483e-007 -0.0187228 -0.00118104 5.82092e-005 -5.38448e-007 9.23798e-008 -2.31542e-006 4.44237e-007 1.26603e-007 -7.13483e-007 -0.0123149 -0.00325704 0.000677941 -5.38512e-007 9.22608e-008 -2.31542e-006 4.44237e-007 1.26603e-007 -7.13483e-007 2.98177e-016 -3.18055e-015 3.19298e-015 -5.38492e-007 9.1997e-008 -2.31544e-006 8.64546 -0.118343 -0.403971 -4.62308 47.398 5.91568 1.07425e-006 6.7763e-006 7.99914 6.39142 1.50363 -0.360483 -4.43366e-007 1.16091e-007 7.18033e-007 7.95139e-016 -3.18055e-015 4.07509e-015 -1.19271e-015 -3.18055e-015 1.09332e-015 -4.43366e-007 1.16091e-007 7.18033e-007 0.0150579 -9.18799e-005 3.65295e-006 -2.38542e-015 9.54166e-015 -1.98785e-016 -4.43366e-007 1.16091e-007 7.18033e-007 0.0190784 -0.00119741 -5.88154e-005 1.98785e-015 -3.18055e-015 1.00386e-014 -4.43366e-007 1.16091e-007 7.18033e-007 0.0123566 -0.00327706 -0.000681211 -3.97569e-016 0 -3.18055e-015 -4.43366e-007 1.16091e-007 7.18033e-007 7.95139e-016 -3.18055e-015 4.07509e-015 -1.19271e-015 -3.18055e-015 1.09332e-015 -123.316 -51.4446 -130.756 -109.594 74.4466 107.386 -4.41904 29.48 -2.36459 2.55427e-006 9.27605e-007 1.11995e-006 121.936 -51.0967 129.159 103.328 75.096 -101.413 4.61151 30.0087 1.4951 -1.44167e-006 6.35523e-007 -2.87493e-006 
-0.0124516 74.2732 -32.4932 -0 -69.0033 -0 -0.374606 16.5534 -0.0220742 -0.795773 33.1067 0.0800797 -0.795772 33.1067 0.0800795 8.48537e-007 -4.71654 -8.50788e-007 -1.31479e-007 -4.28654 8.1766e-010 -8.73369 -0.0986274 0.561898 4.62044 47.398 -5.91834 -2.14625e-007 2.95933e-006 -8.00264 -6.65837 1.87582 0.361839 1.9133e-015 9.54166e-015 -4.73356e-015 7.45443e-017 9.54166e-015 -2.21148e-015 1.04362e-015 0 -6.63444e-015 1.9133e-015 9.54166e-015 -4.73356e-015 -0.0145882 -7.92424e-005 -1.87798e-006 6.13669e-007 -2.11919e-006 -5.85865e-008 1.9133e-015 9.54166e-015 -4.73356e-015 -0.0187443 -0.00118613 6.2351e-005 1.36664e-015 9.54166e-015 -2.70844e-015 1.9133e-015 9.54166e-015 -4.73356e-015 -0.0122281 -0.0032402 0.000673324 4.89507e-015 -6.36111e-015 -1.00635e-015 1.9133e-015 9.54166e-015 -4.73356e-015 7.45443e-017 9.54166e-015 -2.21148e-015 1.04362e-015 0 -6.63444e-015 8.80713 -0.0999691 -0.504558 -4.62308 47.398 5.91568 3.43471e-006 1.01435e-005 7.99914 6.24145 1.88021 -0.448173 4.4331e-007 -1.15656e-007 -7.18101e-007 1.78906e-015 -6.36111e-015 9.93923e-016 4.4331e-007 -1.15656e-007 -7.18101e-007 4.4331e-007 -1.15656e-007 -7.18101e-007 0.0150048 -9.53736e-005 -1.02511e-006 4.43317e-007 -1.15751e-007 -7.18087e-007 4.4331e-007 -1.15656e-007 -7.18101e-007 0.0190088 -0.00118976 -6.1752e-005 4.43313e-007 -1.15776e-007 -7.18087e-007 4.4331e-007 -1.15656e-007 -7.18101e-007 0.0121907 -0.00322685 -0.000670514 4.43297e-007 -1.15732e-007 -7.18102e-007 4.4331e-007 -1.15656e-007 -7.18101e-007 1.78906e-015 -6.36111e-015 9.93923e-016 4.4331e-007 -1.15656e-007 -7.18101e-007 -123.824 -51.7052 -131.309 -111.039 74.262 108.764 -4.26288 29.2468 -2.81692 1.42786e-006 6.4066e-007 2.88173e-006 122.085 -51.2752 129.3 103.287 75.0984 -101.379 4.49899 29.9096 1.73409 -9.54166e-015 -6.36111e-015 4.77083e-015 
